<svg width="107" height="19" viewBox="0 0 107 19" fill="none" xmlns="http://www.w3.org/2000/svg">
<path d="M0.828125 0.75H13.0742V3.78516H4.41406V7.75781H11.9961V10.7578H4.41406V18H0.828125V0.75ZM20.9609 15.6445C21.9375 15.6445 22.6875 15.2969 23.2109 14.6016C23.7344 13.9062 23.9961 12.918 23.9961 11.6367C23.9961 10.3555 23.7344 9.37109 23.2109 8.68359C22.6875 7.98828 21.9375 7.64062 20.9609 7.64062C19.9844 7.64062 19.2305 7.98828 18.6992 8.68359C18.1758 9.37109 17.9141 10.3555 17.9141 11.6367C17.9141 12.918 18.1758 13.9062 18.6992 14.6016C19.2305 15.2969 19.9844 15.6445 20.9609 15.6445ZM27.5 11.6367C27.5 13.5117 26.9609 15.1172 25.8828 16.4531C24.8047 17.7812 23.168 18.4453 20.9727 18.4453C18.7773 18.4453 17.1406 17.7812 16.0625 16.4531C14.9844 15.1172 14.4453 13.5117 14.4453 11.6367C14.4453 9.79297 14.9844 8.19531 16.0625 6.84375C17.1406 5.49219 18.7773 4.81641 20.9727 4.81641C23.168 4.81641 24.8047 5.49219 25.8828 6.84375C26.9609 8.19531 27.5 9.79297 27.5 11.6367ZM35.6328 15.6445C36.6094 15.6445 37.3594 15.2969 37.8828 14.6016C38.4062 13.9062 38.668 12.918 38.668 11.6367C38.668 10.3555 38.4062 9.37109 37.8828 8.68359C37.3594 7.98828 36.6094 7.64062 35.6328 7.64062C34.6562 7.64062 33.9023 7.98828 33.3711 8.68359C32.8477 9.37109 32.5859 10.3555 32.5859 11.6367C32.5859 12.918 32.8477 13.9062 33.3711 14.6016C33.9023 15.2969 34.6562 15.6445 35.6328 15.6445ZM42.1719 11.6367C42.1719 13.5117 41.6328 15.1172 40.5547 16.4531C39.4766 17.7812 37.8398 18.4453 35.6445 18.4453C33.4492 18.4453 31.8125 17.7812 30.7344 16.4531C29.6562 15.1172 29.1172 13.5117 29.1172 11.6367C29.1172 9.79297 29.6562 8.19531 30.7344 6.84375C31.8125 5.49219 33.4492 4.81641 35.6445 4.81641C37.8398 4.81641 39.4766 5.49219 40.5547 6.84375C41.6328 8.19531 42.1719 9.79297 42.1719 11.6367ZM49.2852 4.92188C50.0586 4.92188 50.7461 5.09375 51.3477 5.4375C51.9492 5.77344 52.4375 6.24219 52.8125 6.84375V0.75H56.1992V18H52.9531V16.2305C52.4766 16.9883 51.9336 17.5391 51.3242 17.8828C50.7148 18.2266 49.957 18.3984 49.0508 18.3984C47.5586 18.3984 46.3008 17.7969 45.2773 16.5938C44.2617 15.3828 43.7539 13.832 43.7539 11.9414C43.7539 9.76172 44.2539 8.04688 45.2539 6.79688C46.2617 5.54688 47.6055 4.92188 49.2852 4.92188ZM50.0117 15.5859C50.957 15.5859 51.6758 15.2344 52.168 14.5312C52.6602 13.8281 52.9062 12.918 52.9062 11.8008C52.9062 10.2383 52.5117 9.12109 51.7227 8.44922C51.2383 8.04297 50.6758 7.83984 50.0352 7.83984C49.0586 7.83984 48.3398 8.21094 47.8789 8.95312C47.4258 9.6875 47.1992 10.6016 47.1992 11.6953C47.1992 12.875 47.4297 13.8203 47.8906 14.5312C48.3594 15.2344 49.0664 15.5859 50.0117 15.5859Z" fill="white"/>
<path d="M57.9336 7.72266V5.34375H59.7148V1.78125H63.0195V5.34375H65.0938V7.72266H63.0195V14.4727C63.0195 14.9961 63.0859 15.3242 63.2188 15.457C63.3516 15.582 63.7578 15.6445 64.4375 15.6445C64.5391 15.6445 64.6445 15.6445 64.7539 15.6445C64.8711 15.6367 64.9844 15.6289 65.0938 15.6211V18.1172L63.5117 18.1758C61.9336 18.2305 60.8555 17.957 60.2773 17.3555C59.9023 16.9727 59.7148 16.3828 59.7148 15.5859V7.72266H57.9336ZM70.5664 5.22656V12.9258C70.5664 13.6523 70.6523 14.1992 70.8242 14.5664C71.1289 15.2148 71.7266 15.5391 72.6172 15.5391C73.7578 15.5391 74.5391 15.0781 74.9609 14.1562C75.1797 13.6562 75.2891 12.9961 75.2891 12.1758V5.22656H78.6758V18H75.4297V16.1953C75.3984 16.2344 75.3203 16.3516 75.1953 16.5469C75.0703 16.7422 74.9219 16.9141 74.75 17.0625C74.2266 17.5312 73.7188 17.8516 73.2266 18.0234C72.7422 18.1953 72.1719 18.2812 71.5156 18.2812C69.625 18.2812 68.3516 17.6016 67.6953 16.2422C67.3281 15.4922 67.1445 14.3867 67.1445 12.9258V5.22656H70.5664ZM89.5391 9.80859C89.4766 9.33203 89.3164 8.90234 89.0586 8.51953C88.6836 8.00391 88.1016 7.74609 87.3125 7.74609C86.1875 7.74609 85.418 8.30469 85.0039 9.42188C84.7852 10.0156 84.6758 10.8047 84.6758 11.7891C84.6758 12.7266 84.7852 13.4805 85.0039 14.0508C85.4023 15.1133 86.1523 15.6445 87.2539 15.6445C88.0352 15.6445 88.5898 15.4336 88.918 15.0117C89.2461 14.5898 89.4453 14.043 89.5156 13.3711H92.9258C92.8477 14.3867 92.4805 15.3477 91.8242 16.2539C90.7773 17.7148 89.2266 18.4453 87.1719 18.4453C85.1172 18.4453 83.6055 17.8359 82.6367 16.6172C81.668 15.3984 81.1836 13.8164 81.1836 11.8711C81.1836 9.67578 81.7188 7.96875 82.7891 6.75C83.8594 5.53125 85.3359 4.92188 87.2188 4.92188C88.8203 4.92188 90.1289 5.28125 91.1445 6C92.168 6.71875 92.7734 7.98828 92.9609 9.80859H89.5391ZM95.2344 0.785156H98.5156V10.0898L102.676 5.28516H106.812L102.348 10.1719L106.988 18H102.957L99.8984 12.5391L98.5156 13.9805V18H95.2344V0.785156Z" fill="#BC9A6C"/>
</svg>
